<svg width="204" height="200" viewBox="0 0 204 200" fill="none" xmlns="http://www.w3.org/2000/svg">
<path d="M153.757 4.95312C158.591 22.5258 148.263 40.6907 130.69 45.5244L111.155 50.8965C132.784 54.9075 149.652 72.4736 152.618 94.4512L157.809 75.584C162.642 58.0114 180.806 47.6841 198.379 52.5176L203.333 53.8809L194.855 84.7002C192.556 93.0583 186.938 99.6106 179.817 103.332C186.939 107.053 192.556 113.607 194.855 121.966L203.333 152.785L198.379 154.147C180.806 158.981 162.642 148.655 157.809 131.082L152.224 110.78C148.711 129.777 134.743 145.105 116.51 150.574L130.69 154.476C148.263 159.309 158.591 177.474 153.757 195.047L152.395 200L121.575 191.522C113.213 189.222 106.657 183.601 102.937 176.475C99.216 183.6 92.661 189.222 84.2988 191.522L53.4795 200L52.1172 195.047C47.2834 177.474 57.6099 159.309 75.1826 154.476L88.1338 150.912C69.2325 145.734 54.6836 130.027 51.1875 110.488L45.5244 131.082C40.6906 148.655 22.5258 158.981 4.95312 154.147L0 152.785L8.47754 121.966C10.7766 113.608 16.3936 107.053 23.5146 103.332C16.394 99.6106 10.7766 93.0581 8.47754 84.7002L0 53.8809L4.95312 52.5176C22.5258 47.6838 40.6907 58.0113 45.5244 75.584L50.8037 94.7803C53.7091 72.148 71.3486 54.1269 93.7949 50.6436L75.1826 45.5244C57.6099 40.6907 47.2834 22.5258 52.1172 4.95312L53.4795 0L84.2988 8.47754C92.6607 10.7777 99.2159 16.3989 102.937 23.5244C106.657 16.3988 113.213 10.7777 121.575 8.47754L152.395 0L153.757 4.95312Z" fill="#3D3D3D"/>
</svg>
