<svg width="201" height="201" viewBox="0 0 201 201" fill="none" xmlns="http://www.w3.org/2000/svg">
<path d="M93.6141 2.31775C97.4032 -0.772582 102.843 -0.772582 106.632 2.31775L114.801 8.98104C117.373 11.0776 120.796 11.8075 123.998 10.942L134.148 8.19857C138.862 6.92456 143.821 9.13552 146.025 13.4926L150.821 22.977C152.314 25.9285 155.133 27.9835 158.4 28.501L168.831 30.1536C173.637 30.915 177.255 34.9372 177.504 39.7973L178.053 50.4975C178.222 53.7874 179.955 56.7981 182.715 58.5971L191.64 64.4143C195.704 67.0638 197.368 72.191 195.634 76.7225L191.794 86.7562C190.619 89.8258 190.981 93.2716 192.766 96.0311L198.594 105.039C201.228 109.109 200.665 114.466 197.243 117.901L189.695 125.48C187.373 127.81 186.304 131.109 186.819 134.358L188.499 144.964C189.258 149.762 186.561 154.439 182.027 156.186L172.131 159.996C169.05 161.182 166.725 163.772 165.877 166.963L163.137 177.28C161.886 181.992 157.502 185.181 152.634 184.92L142.12 184.358C138.811 184.181 135.62 185.606 133.543 188.188L126.913 196.435C123.851 200.244 118.532 201.376 114.183 199.143L104.826 194.339C101.874 192.824 98.3722 192.824 95.4198 194.339L86.0621 199.143C81.7139 201.376 76.3956 200.244 73.3329 196.435L66.7026 188.188C64.6265 185.606 61.4349 184.181 58.1264 184.358L47.6125 184.92C42.7443 185.181 38.3604 181.992 37.1089 177.28L34.3683 166.963C33.521 163.772 31.1959 161.182 28.1156 159.996L18.2188 156.186C13.6849 154.439 10.9878 149.762 11.7476 144.964L13.427 134.358C13.9414 131.109 12.8729 127.81 10.5515 125.48L3.00241 117.901C-0.419285 114.466 -0.98162 109.109 1.65209 105.039L7.47998 96.0311C9.26542 93.2716 9.62638 89.8258 8.45174 86.7562L4.61199 76.7225C2.87789 72.191 4.54191 67.0638 8.60653 64.4143L17.5311 58.5971C20.2909 56.7981 22.0235 53.7874 22.1923 50.4975L22.7414 39.7973C22.9908 34.9372 26.6083 30.915 31.4148 30.1536L41.8461 28.501C45.1128 27.9835 47.9321 25.9285 49.4247 22.977L54.2212 13.4926C56.4247 9.13552 61.3849 6.92455 66.0984 8.19857L76.2481 10.942C79.4504 11.8075 82.8736 11.0776 85.4442 8.98104L93.6141 2.31775Z" fill="#3D3D3D"/>
</svg>
