<svg width="122" height="200" viewBox="0 0 122 200" fill="none" xmlns="http://www.w3.org/2000/svg">
<path d="M71.5146 38.7607C71.8157 25.1965 82.9045 14.2931 96.541 14.293C110.367 14.293 121.575 25.5012 121.575 39.3271C121.575 53.153 110.367 64.3613 96.541 64.3613C82.904 64.3611 71.8148 53.4566 71.5146 39.8916V97.9189C71.8155 84.3545 82.9044 73.4514 96.541 73.4512C110.367 73.4512 121.575 84.6586 121.575 98.4844C121.575 112.31 110.367 123.519 96.541 123.519C82.9041 123.518 71.8151 112.615 71.5146 99.0498V157.081C71.8155 143.517 82.9044 132.613 96.541 132.613C110.367 132.613 121.575 143.821 121.575 157.646C121.575 171.472 110.367 182.681 96.541 182.681C82.9041 182.68 71.8151 171.777 71.5146 158.212V200H50.0723V0H71.5146V38.7607Z" fill="#3D3D3D"/>
<path d="M25.0342 132.613C38.8599 132.613 50.0682 143.821 50.0684 157.646C50.0684 171.472 38.86 182.681 25.0342 182.681C11.2083 182.681 0 171.472 0 157.646C0.000183482 143.821 11.2084 132.613 25.0342 132.613Z" fill="#3D3D3D"/>
<path d="M25.0342 73.4512C38.8599 73.4513 50.0682 84.6587 50.0684 98.4844C50.0684 112.31 38.86 123.518 25.0342 123.519C11.2083 123.519 0 112.31 0 98.4844C0.000183482 84.6586 11.2084 73.4512 25.0342 73.4512Z" fill="#3D3D3D"/>
<path d="M25.0342 14.293C38.86 14.293 50.0684 25.5013 50.0684 39.3271C50.0683 53.1529 38.86 64.3612 25.0342 64.3613C11.2083 64.3613 8.04081e-05 53.153 0 39.3271C0 25.5012 11.2083 14.293 25.0342 14.293Z" fill="#3D3D3D"/>
</svg>
