<svg width="182" height="200" viewBox="0 0 182 200" fill="none" xmlns="http://www.w3.org/2000/svg">
<path fill-rule="evenodd" clip-rule="evenodd" d="M160.909 139.373C152.736 129.94 151.408 115.21 156.832 103.97C161.425 94.452 164 83.7766 164 72.5C164 32.4594 131.541 0 91.5002 0C51.4596 0 19.0002 32.4594 19.0002 72.5C19.0002 83.522 21.4598 93.9695 25.86 103.324C31.1725 114.617 29.6999 129.334 21.4354 138.686C11.1834 150.288 3.79368 164.478 0.371942 180.151C-1.98407 190.942 7.19458 200 18.2403 200H163.503C174.549 200 183.728 190.943 181.372 180.151C178.017 164.786 170.849 150.845 160.909 139.373Z" fill="#3D3D3D"/>
</svg>
