<svg width="108" height="200" viewBox="0 0 108 200" fill="none" xmlns="http://www.w3.org/2000/svg">
<path fill-rule="evenodd" clip-rule="evenodd" d="M-5.01475e-05 99.9994C-5.19461e-05 141.147 26.337 176.851 42.2039 194.627C48.5969 201.789 59.2799 201.789 65.6729 194.627C81.5398 176.851 107.877 141.147 107.877 99.9994C107.877 58.8516 81.5399 23.1479 65.6729 5.37163C59.28 -1.79055 48.597 -1.79054 42.204 5.37164C26.337 23.1479 -4.83489e-05 58.8516 -5.01475e-05 99.9994ZM16.3069 99.9994C16.3069 120.783 33.1549 137.631 53.9386 137.631C74.7218 137.631 91.57 120.783 91.57 99.9994C91.57 79.2161 74.7218 62.368 53.9386 62.368C33.155 62.368 16.3069 79.2161 16.3069 99.9994Z" fill="#3D3D3D"/>
</svg>
