<svg width="195" height="200" viewBox="0 0 195 200" fill="none" xmlns="http://www.w3.org/2000/svg">
<path d="M92.3076 200C80.1856 200 68.1817 197.613 56.9824 192.974C45.7833 188.335 35.6076 181.535 27.0361 172.964C18.4646 164.392 11.6653 154.216 7.02637 143.017C2.38754 131.817 1.00758e-05 119.814 0 107.692H92.3076V200Z" fill="#3D3D3D"/>
<path d="M194.869 200C182.747 200 170.743 197.613 159.544 192.974C148.345 188.335 138.169 181.535 129.598 172.964C121.026 164.392 114.227 154.216 109.588 143.017C104.949 131.817 102.562 119.814 102.562 107.692H194.869V200Z" fill="#3D3D3D"/>
<path d="M0 0C12.1219 4.93956e-06 24.125 2.35434 35.3242 6.92871C46.5235 11.5032 56.6999 18.2086 65.2715 26.6611C73.8429 35.1136 80.6424 45.1478 85.2812 56.1914C89.9201 67.2351 92.3076 79.0718 92.3076 91.0254H0V0Z" fill="#3D3D3D"/>
<path d="M100 0C112.122 2.07462e-05 124.125 2.35434 135.324 6.92871C146.524 11.5032 156.7 18.2086 165.271 26.6611C173.843 35.1136 180.642 45.1478 185.281 56.1914C189.92 67.2351 192.308 79.0718 192.308 91.0254H100V0Z" fill="#3D3D3D"/>
</svg>
