<svg width="200" height="144" viewBox="0 0 200 144" fill="none" xmlns="http://www.w3.org/2000/svg">
<path d="M200 93.334C200 105.868 189.839 116.029 177.305 116.029C170.53 116.029 164.45 113.059 160.292 108.353L98.8701 143.813L98.8662 143.82L98.8633 143.817L98.8594 143.82L98.8564 143.813L38.9141 109.206C34.7942 113.415 29.0497 116.029 22.6943 116.029C10.1604 116.029 5.36056e-05 105.868 0 93.334C0 80.8 10.1604 70.6389 22.6943 70.6387C35.2284 70.6387 45.3896 80.7999 45.3896 93.334C45.3896 94.32 45.327 95.2913 45.2051 96.2441L83.9238 118.599L54.6641 67.9189C53.7691 68.0262 52.8584 68.083 51.9346 68.083C39.4005 68.083 29.2393 57.9218 29.2393 45.3877C29.2393 32.8537 39.4005 22.6934 51.9346 22.6934C64.4685 22.6934 74.6288 32.8537 74.6289 45.3877C74.6289 51.8049 71.9653 57.5996 67.6836 61.7275L91.6768 103.286V44.2266C82.6661 41.2198 76.1701 32.7168 76.1699 22.6953C76.1699 10.1612 86.3312 0 98.8652 0C111.399 0.000210282 121.56 10.1614 121.56 22.6953C121.559 32.7187 115.061 41.2233 106.048 44.2285V103.287L130.809 60.4004C127.276 56.3994 125.132 51.1444 125.132 45.3877C125.132 32.8538 135.292 22.6936 147.826 22.6934C160.36 22.6934 170.521 32.8537 170.521 45.3877C170.521 57.9218 160.36 68.083 147.826 68.083C146.254 68.083 144.719 67.9227 143.236 67.6182L113.802 118.599L154.672 95.0029C154.632 94.4518 154.609 93.8953 154.609 93.334C154.609 80.7999 164.771 70.6387 177.305 70.6387C189.839 70.6387 200 80.7999 200 93.334Z" fill="#3D3D3D"/>
</svg>
