<svg width="200" height="198" viewBox="0 0 200 198" fill="none" xmlns="http://www.w3.org/2000/svg">
<path fill-rule="evenodd" clip-rule="evenodd" d="M82.0191 129.476C28.1506 220.841 171.923 220.841 117.981 129.476C200.122 220.841 223.074 198.159 130.779 116.806C223.074 170.137 223.074 27.7969 130.779 81.2022C223.074 -0.15184 200.153 -22.8438 117.981 68.5315C171.849 -22.8438 28.0766 -22.8438 82.0191 68.5315C-0.153336 -22.8438 -23.0737 -0.15184 69.221 81.2022C-23.0737 27.8702 -23.0737 170.211 69.221 116.806C-23.0737 198.159 -0.153336 220.841 82.0191 129.476ZM100 123.75C113.807 123.75 125 112.669 125 99C125 85.331 113.807 74.25 100 74.25C86.1929 74.25 75 85.331 75 99C75 112.669 86.1929 123.75 100 123.75Z" fill="#3D3D3D"/>
</svg>
