<svg width="200" height="200" viewBox="0 0 200 200" fill="none" xmlns="http://www.w3.org/2000/svg">
<path fill-rule="evenodd" clip-rule="evenodd" d="M91.8532 99.613C40.435 103.758 -2.32545e-06 146.8 -3.12226e-08 199.286C52.2424 199.286 95.1281 159.225 99.6128 108.147C103.758 159.565 146.8 200 199.286 200C199.286 147.758 159.225 104.872 108.147 100.387C159.565 96.242 200 53.2 200 0.713996C147.758 0.713998 104.872 40.775 100.387 91.853C96.2416 40.435 53.2 -2.32545e-06 0.714277 -3.12224e-08C0.714277 52.242 40.7753 95.128 91.8532 99.613ZM100.002 100.002L100.003 99.998L99.9975 99.997C99.9975 99.999 99.9975 100.002 99.9975 100.002L100.002 100.002Z" fill="#3D3D3D"/>
</svg>
