<svg width="100" height="200" viewBox="0 0 100 200" fill="none" xmlns="http://www.w3.org/2000/svg">
<path d="M50 150C63.2608 150 75.9787 155.268 85.3555 164.645C94.7323 174.021 100 186.739 100 200H0C2.00233e-06 186.739 5.26771 174.021 14.6445 164.645C24.0214 155.268 36.7392 150 50 150Z" fill="#3D3D3D"/>
<path d="M50 50C77.6142 50 100 72.3858 100 100C100 127.614 77.6142 150 50 150C22.3858 150 0 127.614 0 100C0 72.3858 22.3858 50 50 50Z" fill="#3D3D3D"/>
<path d="M100 0C100 6.56593 98.7069 13.0676 96.1943 19.1338C93.6816 25.2001 89.9984 30.7125 85.3555 35.3555C80.7125 39.9984 75.2001 43.6816 69.1338 46.1943C63.0676 48.7069 56.5659 50 50 50C43.4341 50 36.9324 48.7069 30.8662 46.1943C24.7999 43.6816 19.2875 39.9984 14.6445 35.3555C10.0016 30.7125 6.3184 25.2001 3.80566 19.1338C1.29305 13.0676 0 6.56593 0 0H100Z" fill="#3D3D3D"/>
</svg>
