<svg width="199" height="145" viewBox="0 0 199 145" fill="none" xmlns="http://www.w3.org/2000/svg">
<path d="M98.0246 0C98.0246 0 110.206 10.5679 120.581 27.0508C137.875 17.864 153.855 14.7587 153.955 14.7393C153.98 14.8111 158.802 28.8103 159.852 47.084C180.22 41.8299 198.2 43.0953 198.261 43.0996C198.261 43.0996 201.728 91.894 173.772 119.851C149.332 144.291 108.966 144.714 99.1984 144.435C89.4284 144.714 49.066 144.289 24.6271 119.851C-3.32951 91.894 0.136868 43.0996 0.136868 43.0996C0.136868 43.0996 13.7788 42.1313 30.7687 45.3506C32.0082 27.9438 36.5249 14.826 36.5548 14.7393C36.5548 14.7393 55.212 18.3442 74.0558 29.3506C84.7025 11.557 98.0246 0 98.0246 0Z" fill="#3D3D3D"/>
</svg>
