<svg width="95" height="200" viewBox="0 0 95 200" fill="none" xmlns="http://www.w3.org/2000/svg">
<path d="M93.5149 35.2204C93.9832 35.581 94.2576 36.1385 94.2576 36.7295V84.1398C94.2576 84.7191 93.9939 85.2669 93.5412 85.6284L77.4035 98.5122C76.4483 99.2748 76.4484 100.727 77.4036 101.489L93.5411 114.372C93.9939 114.733 94.2576 115.281 94.2576 115.86V163.272C94.2576 163.863 93.9832 164.421 93.5149 164.781L48.2909 199.604C47.6059 200.132 46.6516 200.132 45.9667 199.604L0.742682 164.781C0.274377 164.421 0 163.863 0 163.272V115.86C0 115.281 0.263671 114.733 0.716449 114.372L16.854 101.489C17.8092 100.727 17.8092 99.2748 16.8541 98.5122L0.716359 85.6284C0.263634 85.2669 0 84.7191 0 84.1398V36.7295C0 36.1385 0.274361 35.581 0.742644 35.2204L45.9666 0.395607C46.6516 -0.131869 47.6059 -0.131869 48.2909 0.395607L93.5149 35.2204ZM25.259 138.723C24.2841 139.485 24.2842 140.961 25.2591 141.723L45.9552 157.912C46.6446 158.451 47.6129 158.451 48.3024 157.912L68.9984 141.723C69.9734 140.961 69.9734 139.485 68.9985 138.723L48.3024 122.532C47.6129 121.993 46.6446 121.993 45.9551 122.532L25.259 138.723ZM25.259 57.6572C24.2841 58.4199 24.2842 59.8952 25.2591 60.6578L45.9552 76.8467C46.6446 77.386 47.6129 77.386 48.3024 76.8467L68.9984 60.6578C69.9734 59.8952 69.9734 58.4199 68.9985 57.6572L48.3024 41.4668C47.6129 40.9274 46.6446 40.9274 45.9551 41.4668L25.259 57.6572Z" fill="#020202"/>
</svg>
