<svg width="200" height="200" viewBox="0 0 200 200" fill="none" xmlns="http://www.w3.org/2000/svg">
<path d="M150 100C156.566 100 163.068 101.293 169.134 103.806C175.2 106.318 180.713 110.002 185.355 114.645C189.998 119.287 193.682 124.8 196.194 130.866C198.707 136.932 200 143.434 200 150H150V100Z" fill="#3D3D3D"/>
<path d="M150 0C156.566 -2.87006e-07 163.068 1.29305 169.134 3.80566C175.2 6.3184 180.713 10.0016 185.355 14.6445C189.998 19.2875 193.682 24.7999 196.194 30.8662C198.707 36.9324 200 43.4341 200 50L150 50V0Z" fill="#3D3D3D"/>
<path d="M150 150V200C143.434 200 136.932 198.707 130.866 196.194C124.8 193.682 119.287 189.998 114.645 185.355C110.002 180.713 106.318 175.2 103.806 169.134C101.293 163.068 100 156.566 100 150H150Z" fill="#3D3D3D"/>
<path d="M150 50V100C143.434 100 136.932 98.7069 130.866 96.1943C124.8 93.6816 119.287 89.9984 114.645 85.3555C110.002 80.7125 106.318 75.2001 103.806 69.1338C101.293 63.0676 100 56.5659 100 50L150 50Z" fill="#3D3D3D"/>
<path d="M50 100C56.5659 100 63.0676 101.293 69.1338 103.806C75.2001 106.318 80.7125 110.002 85.3555 114.645C89.9984 119.287 93.6816 124.8 96.1943 130.866C98.7069 136.932 100 143.434 100 150H50V100Z" fill="#3D3D3D"/>
<path d="M50 4.37114e-06C56.5659 4.08413e-06 63.0676 1.29306 69.1338 3.80567C75.2001 6.3184 80.7125 10.0016 85.3555 14.6445C89.9984 19.2875 93.6816 24.7999 96.1943 30.8662C98.7069 36.9324 100 43.4341 100 50H50L50 4.37114e-06Z" fill="#3D3D3D"/>
<path d="M50 150L50 200C43.4341 200 36.9324 198.707 30.8662 196.194C24.7999 193.682 19.2875 189.998 14.6445 185.355C10.0016 180.713 6.3184 175.2 3.80567 169.134C1.29306 163.068 4.94515e-06 156.566 4.37114e-06 150H50Z" fill="#3D3D3D"/>
<path d="M50 50L50 100C43.4341 100 36.9324 98.707 30.8662 96.1943C24.7999 93.6816 19.2875 89.9984 14.6445 85.3555C10.0016 80.7125 6.3184 75.2001 3.80567 69.1338C1.29306 63.0677 5.74011e-07 56.5659 0 50L50 50Z" fill="#3D3D3D"/>
</svg>
