<svg width="198" height="198" viewBox="0 0 198 198" fill="none" xmlns="http://www.w3.org/2000/svg">
<path fill-rule="evenodd" clip-rule="evenodd" d="M14.3481 105.047C15.796 101.106 15.7961 96.7636 14.3484 92.8218C3.07513 62.1462 0.472645 31.564 0.00552484 14.3177C-0.21454 6.1826 6.18272 -0.214621 14.3177 0.00552885C31.5644 0.47226 62.1465 3.07483 92.822 14.348C96.7634 15.7964 101.106 15.7964 105.047 14.348C135.723 3.07492 166.305 0.472256 183.552 0.0055157C191.687 -0.214634 198.084 6.18262 197.864 14.3177C197.397 31.564 194.794 62.1463 183.521 92.8218C182.073 96.7636 182.073 101.106 183.521 105.047C194.795 135.723 197.397 166.305 197.864 183.552C198.084 191.687 191.687 198.084 183.552 197.864C166.306 197.397 135.724 194.795 105.047 183.521C101.106 182.074 96.7633 182.074 92.8219 183.521C62.1458 194.795 31.5638 197.397 14.3177 197.864C6.18249 198.084 -0.214752 191.687 0.0055218 183.552C0.472073 166.305 3.07446 135.723 14.3481 105.047ZM64.0487 133.821C83.3153 153.088 114.554 153.088 133.821 133.821C153.088 114.554 153.088 83.3155 133.821 64.0489C114.554 44.7816 83.3158 44.7817 64.0485 64.0491C44.7819 83.3156 44.7814 114.554 64.0487 133.821Z" fill="#3D3D3D"/>
</svg>
