<svg width="191" height="200" viewBox="0 0 191 200" fill="none" xmlns="http://www.w3.org/2000/svg">
<path d="M141.171 100C156.187 97.0302 170.962 89.6912 179.977 80.047L190.212 69.0981L175.496 66.2558C162.534 63.7521 146.267 66.5 132.373 72.9237C142.776 61.6944 150.416 47.0726 152.04 33.9716L153.885 19.0981L140.309 25.4484C128.351 31.0419 116.806 42.826 109.34 56.1898C111.156 40.9907 108.743 24.6707 102.356 13.1167L95.106 0L87.8553 13.1167C81.4688 24.6707 79.0554 40.9907 80.8712 56.1898C73.406 42.826 61.8609 31.0414 49.9028 25.4484L36.327 19.0981L38.1712 33.9716C39.7958 47.0726 47.4358 61.6944 57.8386 72.9237C43.9446 66.5 27.6772 63.7526 14.7153 66.2558L0 69.0981L10.2344 80.047C19.2493 89.6912 34.0242 97.0298 49.0409 100C34.0247 102.97 19.2493 110.308 10.2344 119.953L0 130.902L14.7153 133.744C27.6772 136.248 43.9442 133.5 57.8386 127.076C47.4358 138.306 39.7958 152.927 38.1712 166.028L36.327 180.901L49.9023 174.552C61.8605 168.958 73.4056 157.174 80.8707 143.81C79.0549 159.009 81.4684 175.329 87.8549 186.883L95.105 200L102.355 186.883C108.742 175.329 111.155 159.009 109.34 143.81C116.805 157.174 128.35 168.959 140.308 174.552L153.883 180.901L152.039 166.028C150.414 152.927 142.774 138.306 132.372 127.076C146.266 133.5 162.533 136.247 175.495 133.744L190.21 130.902L179.976 119.953C170.962 110.309 156.187 102.97 141.171 100Z" fill="#3D3D3D"/>
</svg>
