<svg width="183" height="200" viewBox="0 0 183 200" fill="none" xmlns="http://www.w3.org/2000/svg">
<path fill-rule="evenodd" clip-rule="evenodd" d="M119.603 16.3347C106.825 -5.44489 75.3365 -5.4449 62.5579 16.3347L62.0938 17.1257C56.1986 27.1733 45.4518 33.378 33.8027 33.4596L32.8856 33.466C7.63462 33.6428 -8.10939 60.9123 4.36292 82.8687L4.81592 83.6661C10.5698 93.7953 10.5698 106.205 4.81592 116.334L4.36292 117.131C-8.10939 139.088 7.63462 166.357 32.8856 166.534L33.8027 166.54C45.4517 166.622 56.1986 172.827 62.0938 182.874L62.5579 183.665C75.3365 205.445 106.825 205.445 119.603 183.665L120.067 182.874C125.963 172.827 136.709 166.622 148.358 166.54L149.276 166.534C174.527 166.357 190.271 139.088 177.798 117.131L177.345 116.334C171.591 106.205 171.591 93.7953 177.345 83.6661L177.798 82.8687C190.271 60.9123 174.527 33.6428 149.276 33.466L148.358 33.4596C136.709 33.378 125.963 27.1733 120.067 17.1257L119.603 16.3347ZM91.081 149.604C118.476 149.604 140.685 127.396 140.685 100C140.685 72.6042 118.476 50.3955 91.081 50.3955C63.6848 50.3955 41.4761 72.6042 41.4761 100C41.4761 127.396 63.6848 149.604 91.081 149.604Z" fill="#3D3D3D"/>
</svg>
